<?xml version="1.0" encoding="UTF-8"?>
<svg xmlns="http://www.w3.org/2000/svg" xmlns:xlink="http://www.w3.org/1999/xlink" width="288pt" height="98.37pt" viewBox="0 0 288 98.37" version="1.1">
<defs>
<clipPath id="clip1">
  <path d="M 0 48 L 244 48 L 244 98.371094 L 0 98.371094 Z M 0 48 "/>
</clipPath>
</defs>
<g id="surface1">
<path style=" stroke:none;fill-rule:nonzero;fill:rgb(100%,100%,100%);fill-opacity:1;" d="M 287.757813 11.304688 C 292.320313 28.636719 231.660156 59.644531 152.257813 80.5625 C 72.863281 101.480469 4.804688 104.390625 0.242188 87.0625 C -4.320313 69.722656 56.34375 38.71875 135.738281 17.800781 C 215.136719 -3.113281 283.195313 -6.023438 287.757813 11.304688 "/>
<path style=" stroke:none;fill-rule:nonzero;fill:rgb(8.599854%,15.699768%,51.399231%);fill-opacity:1;" d="M 70.109375 38.90625 L 261.914063 38.90625 C 263.359375 38.066406 264.753906 37.226563 266.09375 36.394531 L 76.707031 36.394531 C 74.46875 37.226563 72.273438 38.066406 70.109375 38.90625 "/>
<g clip-path="url(#clip1)" clip-rule="nonzero">
<path style=" stroke:none;fill-rule:nonzero;fill:rgb(8.599854%,15.699768%,51.399231%);fill-opacity:1;" d="M 0.242188 87.0625 C 4.804688 104.390625 72.863281 101.480469 152.257813 80.5625 C 187.652344 71.234375 219.304688 59.90625 243.132813 48.679688 L 47.015625 48.679688 C 16.089844 62.980469 -2.347656 77.222656 0.242188 87.0625 "/>
</g>
<path style=" stroke:none;fill-rule:nonzero;fill:rgb(8.599854%,15.699768%,51.399231%);fill-opacity:1;" d="M 80.980469 34.8125 L 268.589844 34.8125 C 269.886719 33.96875 271.117188 33.132813 272.296875 32.300781 L 88.050781 32.300781 C 85.664063 33.132813 83.300781 33.96875 80.980469 34.8125 "/>
<path style=" stroke:none;fill-rule:nonzero;fill:rgb(8.599854%,15.699768%,51.399231%);fill-opacity:1;" d="M 59.960938 43.003906 L 254.523438 43.003906 C 256.109375 42.160156 257.65625 41.324219 259.144531 40.488281 L 66.105469 40.488281 C 64.019531 41.324219 61.96875 42.160156 59.960938 43.003906 "/>
<path style=" stroke:none;fill-rule:nonzero;fill:rgb(8.599854%,15.699768%,51.399231%);fill-opacity:1;" d="M 100.222656 28.207031 C 97.660156 29.035156 95.144531 29.875 92.652344 30.71875 L 274.496094 30.71875 C 275.628906 29.871094 276.679688 29.035156 277.679688 28.207031 "/>
<path style=" stroke:none;fill-rule:nonzero;fill:rgb(8.599854%,15.699768%,51.399231%);fill-opacity:1;" d="M 50.488281 47.097656 L 246.453125 47.097656 C 248.179688 46.257813 249.867188 45.417969 251.503906 44.585938 L 56.207031 44.585938 C 54.257813 45.421875 52.355469 46.257813 50.488281 47.097656 "/>
<path style=" stroke:none;fill-rule:nonzero;fill:rgb(8.599854%,15.699768%,51.399231%);fill-opacity:1;" d="M 287.757813 11.304688 C 283.195313 -6.023438 215.136719 -3.113281 135.738281 17.800781 C 125.183594 20.582031 114.976563 23.542969 105.195313 26.625 L 279.527344 26.625 C 285.910156 20.902344 288.90625 15.671875 287.757813 11.304688 "/>
<path style=" stroke:none;fill-rule:nonzero;fill:rgb(100%,100%,100%);fill-opacity:1;" d="M 86.566406 24.3125 L 97.246094 24.3125 L 81.441406 42.511719 L 92.867188 62.746094 L 81.707031 62.746094 L 73.019531 46.078125 L 72.929688 46.078125 L 70.5 62.746094 L 61.886719 62.746094 L 67.453125 24.3125 L 76.066406 24.3125 L 73.773438 40.167969 L 73.859375 40.167969 "/>
<path style=" stroke:none;fill-rule:nonzero;fill:rgb(100%,100%,100%);fill-opacity:1;" d="M 108.15625 32.773438 L 107.222656 39.195313 L 116.933594 39.195313 L 115.71875 47.660156 L 106.007813 47.660156 L 105.023438 54.285156 L 115.265625 54.285156 L 114.046875 62.746094 L 95.195313 62.746094 L 100.761719 24.3125 L 119.613281 24.3125 L 118.398438 32.773438 "/>
<path style=" stroke:none;fill-rule:nonzero;fill:rgb(100%,100%,100%);fill-opacity:1;" d="M 128.574219 24.3125 L 137.058594 24.3125 L 140.835938 44.855469 L 150.898438 24.3125 L 159.46875 24.3125 L 158.914063 62.746094 L 150.300781 62.746094 L 151.109375 40.625 L 151.019531 40.625 L 139.84375 62.746094 L 136.414063 62.746094 L 132.035156 40.625 L 131.949219 40.625 L 125.957031 62.746094 L 117.386719 62.746094 "/>
<path style=" stroke:none;fill-rule:nonzero;fill:rgb(100%,100%,100%);fill-opacity:1;" d="M 180.898438 36.1875 L 180.808594 36.1875 L 175.472656 48.421875 L 182.636719 48.421875 Z M 171.980469 56.070313 L 168.714844 62.746094 L 159.570313 62.746094 L 177.882813 24.3125 L 187.285156 24.3125 L 194.199219 62.746094 L 185.015625 62.746094 L 183.84375 56.070313 "/>
<path style=" stroke:none;fill-rule:nonzero;fill:rgb(100%,100%,100%);fill-opacity:1;" d="M 219.234375 34.203125 C 217.839844 32.671875 216.003906 31.652344 213.894531 31.652344 C 212.3125 31.652344 210.019531 32.722656 209.734375 34.863281 C 209.40625 37.105469 211.597656 37.972656 213 38.535156 L 215.101563 39.300781 C 219.480469 40.878906 222.667969 43.582031 221.734375 49.800781 C 221.171875 53.625 219.820313 57.546875 216.808594 60.148438 C 213.84375 62.695313 210.230469 63.765625 206.890625 63.765625 C 202.714844 63.765625 198.863281 62.136719 195.855469 59.382813 L 200.714844 51.328125 C 202.585938 53.519531 204.855469 55.304688 207.800781 55.304688 C 209.820313 55.304688 212.160156 54.132813 212.535156 51.433594 C 212.953125 48.628906 209.710938 47.660156 207.960938 47.046875 C 202.789063 45.261719 199.464844 43.632813 200.585938 36.1875 C 201.707031 28.390625 207.242188 23.292969 213.878906 23.292969 C 217.21875 23.292969 221.117188 24.515625 223.78125 26.453125 "/>
<path style=" stroke:none;fill-rule:nonzero;fill:rgb(88.598633%,0%,9.799194%);fill-opacity:1;" d="M 87.941406 23.929688 L 98.617188 23.929688 L 82.976563 41.5 L 94.578125 61.039063 L 83.414063 61.039063 L 74.582031 44.945313 L 74.492188 44.945313 L 72.210938 61.039063 L 63.597656 61.039063 L 68.824219 23.929688 L 77.4375 23.929688 L 75.285156 39.234375 L 75.371094 39.234375 "/>
<path style=" stroke:none;fill-rule:nonzero;fill:rgb(88.598633%,0%,9.799194%);fill-opacity:1;" d="M 109.605469 32.097656 L 108.726563 38.300781 L 118.4375 38.300781 L 117.292969 46.46875 L 107.582031 46.46875 L 106.660156 52.867188 L 116.898438 52.867188 L 115.757813 61.039063 L 96.90625 61.039063 L 102.132813 23.929688 L 120.984375 23.929688 L 119.84375 32.097656 "/>
<path style=" stroke:none;fill-rule:nonzero;fill:rgb(88.598633%,0%,9.799194%);fill-opacity:1;" d="M 129.949219 23.929688 L 138.429688 23.929688 L 142.386719 43.761719 L 152.273438 23.929688 L 160.84375 23.929688 L 160.621094 61.039063 L 152.007813 61.039063 L 152.625 39.679688 L 152.535156 39.679688 L 141.550781 61.039063 L 138.121094 61.039063 L 133.554688 39.679688 L 133.464844 39.679688 L 127.664063 61.039063 L 119.097656 61.039063 "/>
<path style=" stroke:none;fill-rule:nonzero;fill:rgb(88.598633%,0%,9.799194%);fill-opacity:1;" d="M 182.375 35.394531 L 182.285156 35.394531 L 177.058594 47.207031 L 184.21875 47.207031 Z M 173.628906 54.59375 L 170.421875 61.039063 L 161.28125 61.039063 L 179.253906 23.929688 L 188.65625 23.929688 L 195.90625 61.039063 L 186.726563 61.039063 L 185.492188 54.59375 "/>
<path style=" stroke:none;fill-rule:nonzero;fill:rgb(88.598633%,0%,9.799194%);fill-opacity:1;" d="M 220.691406 33.476563 C 219.285156 32 217.441406 31.015625 215.332031 31.015625 C 213.75 31.015625 211.464844 32.050781 211.199219 34.117188 C 210.894531 36.28125 213.089844 37.117188 214.496094 37.660156 L 216.605469 38.398438 C 221 39.925781 224.207031 42.53125 223.328125 48.539063 C 222.800781 52.230469 221.484375 56.019531 218.496094 58.527344 C 215.550781 60.988281 211.945313 62.023438 208.605469 62.023438 C 204.433594 62.023438 200.566406 60.449219 197.535156 57.792969 L 202.324219 50.015625 C 204.214844 52.132813 206.5 53.851563 209.441406 53.851563 C 211.464844 53.851563 213.792969 52.722656 214.144531 50.113281 C 214.539063 47.40625 211.289063 46.46875 209.53125 45.878906 C 204.347656 44.15625 201.007813 42.582031 202.0625 35.394531 C 203.113281 27.867188 208.605469 22.945313 215.242188 22.945313 C 218.582031 22.945313 222.492188 24.125 225.175781 25.996094 "/>
</g>
</svg>
